%
M48
M72
T01C0.0157
T02C0.0354
T03C0.0394
T04C0.0453
T05C0.0492
T06C0.0984
T07C0.1260
%
T01
X42079Y11739
X42670Y7802
X56351Y13314
X56056Y13314
X55760Y13314
X55465Y13314
X49953Y13905
X54284Y13905
X54284Y13314
X52906Y13905
X52906Y13314
X51331Y13905
X51331Y13314
X54284Y12133
X54284Y11542
X52906Y11542
X52906Y12133
X51331Y11542
X51331Y12133
X49953Y11542
X49953Y12133
X49953Y13314
X53890Y14495
X53300Y14495
X53890Y12723
X53300Y12723
X53890Y10952
X53300Y10952
X51922Y10952
X51922Y14495
X50937Y10952
X50347Y10952
X50347Y14495
X50937Y14495
X52709Y14495
X52709Y10952
X52709Y12723
X51922Y12723
X50937Y12723
X50347Y12723
X50642Y5243
X30465Y11345
X31843Y11345
X32827Y11149
X29678Y11345
X30465Y9968
X32237Y10164
X29678Y10361
X30465Y12330
X31843Y12330
X32630Y12723
X29678Y12330
X29087Y13708
X53300Y8393
X54284Y8983
X55071Y7605
X53890Y7605
X53496Y7605
X53103Y7605
X55465Y7605
X55859Y7605
X55859Y7212
X55859Y6818
X55859Y6424
X55859Y6031
X52709Y7605
X52709Y7212
X52709Y6818
X53496Y5440
X55071Y5440
X54874Y5046
X54874Y4653
X53693Y5046
X53693Y4653
X55859Y5637
X55465Y5440
X53103Y5440
X52709Y5637
X55268Y4653
X55268Y5046
X55465Y4259
X55465Y3865
X55465Y3471
X53300Y4653
X53300Y5046
X53103Y4259
X53103Y3865
X53103Y3471
X52906Y5046
X52906Y4653
X55662Y4653
X55662Y5046
X50937Y5145
X51233Y5145
X47591Y6031
X48969Y7999
X48378Y8590
X41882Y6818
X41685Y7408
X42867Y6818
X43654Y2881
X44244Y3471
X51331Y7212
X52119Y8393
X50642Y8393
X46804Y8196
X52906Y1897
X47394Y7605
X56351Y1700
X26528Y9377
X26528Y9771
X26134Y9771
X26134Y9377
X25741Y9377
X25741Y9771
X25347Y9377
X25347Y11739
X24166Y12920
X22591Y13511
X23378Y13511
X47493Y9672
X47886Y9672
X48280Y9672
X33319Y13806
X34796Y14298
X46804Y13708
X31843Y7408
X47000Y14987
X43556Y14495
X40406Y12527
X39225Y14495
X41193Y14495
X37158Y7212
X31646Y1897
X30859Y1897
X34008Y1897
X33221Y1897
X29185Y8590
X32040Y3865
X32433Y1897
X20622Y1897
X27217Y6129
X20918Y7113
X20918Y6129
X27217Y7113
X24658Y7113
X24658Y6129
X22493Y10853
X20721Y11838
X33615Y6621
X56646Y13314
X57237Y12723
X56941Y12625
X57237Y11542
X56941Y11149
X56941Y10853
X56941Y13216
X57138Y13019
X56941Y12330
X56941Y12034
X57237Y11936
X56941Y11444
X56941Y11739
X55465Y14495
X55760Y14495
X56056Y14495
X56351Y14495
X56646Y14495
X56941Y14495
X57237Y14495
X57729Y14200
X57926Y14003
X58122Y13806
X58319Y13609
X58418Y13314
X57532Y14397
X58418Y13019
X58418Y12723
X58418Y12428
X58418Y12133
X58418Y11838
X58418Y11542
X58418Y11247
X58418Y10952
X56646Y10853
X56646Y10558
X56646Y10263
X56646Y9968
X56646Y9672
X56646Y9377
X56646Y9082
X56646Y8786
X56646Y8491
X56646Y8196
X56646Y7901
X56646Y7605
X56646Y7310
X56646Y7015
X56646Y6719
X56646Y6424
X56646Y6129
X56646Y5834
X56646Y5342
X56646Y4849
X56646Y4357
X56646Y3865
X56646Y3373
X56449Y2881
X56449Y2389
X56646Y1897
X49756Y16857
X39520Y16857
X40307Y16857
X41095Y16857
X41882Y16857
X42670Y16857
X43457Y16857
X44244Y16857
X45032Y16857
X45819Y16857
X46607Y16857
X47394Y16857
X48181Y16857
X48969Y16857
X50544Y16857
X51331Y16857
X52119Y16857
X52906Y16857
X53693Y16857
X54481Y16857
X55268Y16857
X56056Y16857
X58418Y14495
X38733Y16857
X37945Y16857
X37158Y16857
X36370Y16857
X35583Y16857
X34796Y16857
X34008Y16857
X33221Y16857
X32433Y16857
X31646Y16857
X30859Y16857
X30071Y16857
X29284Y16857
X28496Y16857
X26134Y16857
X25347Y16857
X24559Y16857
X23772Y16857
X22985Y16857
X22197Y16857
X21410Y16857
X20622Y16857
X19835Y16857
X19048Y16857
X18260Y16857
X17473Y16857
X16685Y16857
X15898Y16857
X15111Y16857
X14323Y16857
X13536Y16857
X12748Y16857
X11961Y16857
X11174Y16857
X10386Y16857
X9599Y16857
X8811Y16857
X8024Y16857
X7237Y16857
X6449Y16857
X5662Y16857
X4874Y16857
X4087Y16857
X3300Y16857
X937Y14495
X937Y13708
X937Y12920
X937Y12133
X937Y11345
X937Y10558
X937Y9771
X937Y8983
X937Y8196
X937Y7408
X937Y6621
X937Y5834
X937Y5046
X937Y4259
X3300Y1897
X4087Y1897
X4874Y1897
X5662Y1897
X6449Y1897
X7237Y1897
X8024Y1897
X8811Y1897
X9599Y1897
X10386Y1897
X11174Y1897
X11961Y1897
X12748Y1897
X13536Y1897
X14323Y1897
X15111Y1897
X15898Y1897
X16685Y1897
X17473Y1897
X19835Y1897
X21410Y1897
X22197Y1897
X22985Y1897
X23772Y1897
X24559Y1897
X25347Y1897
X26134Y1897
X37945Y1897
X38733Y1897
X39520Y1897
X40307Y1897
X41095Y1897
X41882Y1897
X46607Y1897
X47394Y1897
X51528Y5145
X50937Y4849
X51233Y4849
X51528Y4849
X51823Y4849
X26922Y16857
X27709Y16857
X37158Y1897
X36370Y1897
X35583Y1897
X34796Y1897
X26922Y1897
X27709Y1897
X28496Y1897
X29284Y1897
X30071Y1897
X32040Y5834
X31843Y4849
X32827Y4849
X33811Y3865
X37748Y3471
X37748Y4653
X41095Y4653
X28103Y12920
X30071Y15086
X18260Y1897
X19048Y1897
X14323Y3275
X14323Y2881
X15111Y2487
X15504Y2487
X15898Y2487
X5662Y5637
X6056Y5637
X6449Y5637
X7237Y5243
X7237Y4849
X8418Y6621
X5268Y12920
X8418Y9771
X5268Y6621
X3693Y8196
X20032Y13708
X14717Y10952
X3693Y9771
X13142Y9771
X3693Y11345
X11567Y9771
X3693Y12920
X6843Y12920
X9993Y9771
X8418Y12920
X13142Y6621
X9993Y12920
X14717Y6621
X11567Y12920
X16292Y6621
X13142Y12920
X11567Y6621
X14717Y12920
X9993Y6621
X16292Y12920
X6843Y6621
X9993Y8983
X14717Y8983
X16685Y6621
X17079Y6621
X17473Y6621
X9993Y5046
X11567Y5046
X13142Y5046
X14717Y5046
X8418Y5046
X16292Y8983
X16292Y10952
X19638Y8983
X24658Y3767
X27217Y3767
X37650Y15676
X28004Y8294
X22985Y8590
X35878Y10952
X36075Y9968
X35977Y12723
X28103Y14495
X48969Y1897
X49756Y1897
X50544Y1897
X41882Y6227
X16882Y2881
X17276Y2881
X17276Y3275
X16882Y3275
X48969Y6424
X52119Y6424
X48969Y6031
X48575Y6424
X48575Y6031
X52119Y6031
X31449Y4653
X37158Y3471
X43457Y3668
X21410Y3471
X32827Y11739
X24363Y8590
X32827Y12330
X23772Y10558
X35977Y7015
X40307Y7408
X35386Y8786
X39914Y9771
X36370Y7212
X35780Y8983
X34993Y8590
X39520Y9574
X35583Y6818
X39520Y7408
X31646Y9968
X36567Y10755
X42473Y10952
X42867Y8196
X34402Y7408
X28103Y15873
X32827Y10164
X34402Y9771
X45622Y9574
X42473Y10361
X26528Y13314
X26528Y12527
X30662Y13117
X31056Y12330
X31056Y10952
X31056Y6621
X33811Y5046
X41095Y3865
X48575Y10558
X53300Y9771
X47197Y12920
X47788Y8590
X46804Y11149
X42079Y12330
X37945Y7408
X37945Y11936
X41095Y7408
X39126Y11936
X38536Y7408
X38536Y11936
X24363Y13905
X30071Y13117
X39717Y11936
X42276Y7408
X44048Y7802
X44441Y11542
X43851Y7212
X44441Y10952
T02
X49087Y3078
X50819Y3078
T03
X25778Y14692
X27278Y14692
X54678Y1483
X54678Y2546
X24658Y5243
T04
X44933Y1897
X43556Y1897
T05
X27611Y5243
T06
X3300Y5637
T07
X1725Y16070
X57630Y16070
X57630Y2684
X1725Y2684
M30
